<svg xmlns="http://www.w3.org/2000/svg" width="1080" height="600" viewBox="0 0 1080 600">
<defs><g id="arrow"><path d="M-10 -6 Q-4 -2 0 0 Q-4 3 -10 7" fill="none" stroke="currentColor" stroke-width="2.7" stroke-linecap="round" stroke-linejoin="round"/></g></defs>
<rect width="1080" height="600" rx="18" fill="#fffdf6"/><text x="540" y="64" text-anchor="middle" font-family="KaiTi,STKaiti,Microsoft YaHei,sans-serif" font-size="39" font-weight="700" fill="#222">从人工传话到 Agent 消息协作</text><path d="M130 83 Q540 89 950 82" stroke="#333" stroke-width="2.5" fill="none"/>
<g font-family="KaiTi,STKaiti,Microsoft YaHei,sans-serif" text-anchor="middle">
<text x="267" y="135" font-size="30" font-weight="700" fill="#c5412e">现在：人工交接</text><text x="812" y="135" font-size="30" font-weight="700" fill="#245ba8">目标：Agent 互通</text>
<path d="M46 163 Q48 154 60 156 L496 156 Q507 157 507 169 L507 472 Q505 482 493 482 L57 482 Q45 480 46 469Z" fill="#fff" stroke="#555" stroke-width="2.5"/><path d="M573 163 Q575 154 587 156 L1023 156 Q1034 157 1034 169 L1034 472 Q1032 482 1020 482 L584 482 Q572 480 573 469Z" fill="#fff" stroke="#555" stroke-width="2.5"/>
<rect x="80" y="205" width="150" height="82" rx="12" fill="#fff" stroke="#222" stroke-width="2.5"/><text x="155" y="239" font-size="21" fill="#555">分析 Agent</text><text x="155" y="267" font-size="18" fill="#555">整理结论</text>
<rect x="319" y="205" width="176" height="82" rx="12" fill="#fff" stroke="#d44a31" stroke-width="2.5"/><text x="407" y="239" font-size="22" fill="#c5412e" font-weight="700">Markdown</text><text x="407" y="267" font-size="18" fill="#555">人来转交</text><path d="M236 246 L305 246" stroke="#d44a31" stroke-width="2.8" stroke-linecap="round" stroke-dasharray="6 5"/><use href="#arrow" x="305" y="246" color="#d44a31"/>
<rect x="178" y="340" width="195" height="82" rx="12" fill="#fff" stroke="#222" stroke-width="2.5"/><text x="275" y="374" font-size="21" fill="#555">编码 Agent</text><text x="275" y="402" font-size="18" fill="#555">等待人工通知</text><path d="M407 291 Q412 306 397 318 T362 332 Q350 336 340 337" stroke="#d44a31" stroke-width="2.8" stroke-linecap="round" stroke-dasharray="6 5" fill="none"/><use href="#arrow" x="340" y="337" transform="rotate(180 340 337)" color="#d44a31"/><text x="276" y="452" font-size="18" fill="#c5412e">状态靠人追问，过程靠人更新</text>
<rect x="611" y="205" width="151" height="82" rx="12" fill="#fff" stroke="#245ba8" stroke-width="2.5"/><text x="686" y="239" font-size="21" fill="#245ba8">分析 Agent</text><text x="686" y="267" font-size="18" fill="#555">发送消息</text>
<rect x="825" y="205" width="174" height="132" rx="16" fill="#fff" stroke="#258148" stroke-width="3"/><text x="912" y="239" font-size="22" fill="#258148" font-weight="700">协作服务</text><text x="912" y="271" font-size="18" fill="#444">路由 · 广播</text><text x="912" y="300" font-size="18" fill="#444">记录 · 状态</text>
<rect x="611" y="373" width="151" height="82" rx="12" fill="#fff" stroke="#245ba8" stroke-width="2.5"/><text x="686" y="407" font-size="21" fill="#245ba8">编码 Agent</text><text x="686" y="435" font-size="18" fill="#555">接收并回复</text>
<path d="M768 246 L811 246" stroke="#245ba8" stroke-width="3" stroke-linecap="round"/><use href="#arrow" x="811" y="246" color="#245ba8"/><path d="M824 306 Q801 320 777 333 T733 355 Q721 360 708 363" stroke="#258148" stroke-width="3" stroke-linecap="round" fill="none"/><use href="#arrow" x="708" y="363" transform="rotate(160 708 363)" color="#258148"/>
<text x="886" y="425" font-size="18" fill="#258148">过程可回看</text><text x="886" y="454" font-size="18" fill="#258148">接手有状态</text>
<text x="540" y="540" font-size="23" fill="#333" font-weight="700">协作服务减少人工传递，让消息与交接过程可追踪</text>
</g></svg>
