<svg xmlns="http://www.w3.org/2000/svg" width="1080" height="600" viewBox="0 0 1080 600"><defs><g id="arrow"><path d="M-10 -6 Q-4 -2 0 0 Q-4 3 -10 7" fill="none" stroke="currentColor" stroke-width="2.7" stroke-linecap="round" stroke-linejoin="round"/></g></defs><rect width="1080" height="600" rx="18" fill="#fffdf6"/><text x="540" y="66" text-anchor="middle" font-family="KaiTi,STKaiti,Microsoft YaHei,sans-serif" font-size="40" font-weight="700" fill="#222">MCP 接入与协作服务（待验证方案）</text><path d="M124 88 Q540 94 956 86" stroke="#333" stroke-width="2.5" fill="none"/><g font-family="KaiTi,STKaiti,Microsoft YaHei,sans-serif" text-anchor="middle">
<text x="177" y="145" font-size="24" fill="#555">现有 Agent 工具</text><rect x="75" y="169" width="204" height="82" rx="14" fill="#fff" stroke="#245ba8" stroke-width="2.5"/><text x="177" y="203" font-size="24" fill="#245ba8" font-weight="700">Codex</text><text x="177" y="232" font-size="18" fill="#555">MCP Client</text><rect x="75" y="286" width="204" height="82" rx="14" fill="#fff" stroke="#c5412e" stroke-width="2.5"/><text x="177" y="320" font-size="24" fill="#c5412e" font-weight="700">OpenCode</text><text x="177" y="349" font-size="18" fill="#555">MCP Client</text>
<rect x="370" y="210" width="150" height="118" rx="18" fill="#eef4ff" stroke="#245ba8" stroke-width="3"/><text x="445" y="256" font-size="25" fill="#245ba8" font-weight="700">MCP</text><text x="445" y="291" font-size="21" fill="#245ba8">统一接入</text>
<rect x="603" y="148" width="260" height="228" rx="20" fill="#f0f8ef" stroke="#258148" stroke-width="3"/><text x="733" y="191" font-size="27" fill="#258148" font-weight="700">MCP Server</text><path d="M632 207Q733 212 833 206" stroke="#258148" stroke-width="1.5"/><text x="733" y="246" font-size="20" fill="#333">Agent 注册与身份</text><text x="733" y="282" font-size="20" fill="#333">点对点消息 · 团队广播</text><text x="733" y="318" font-size="20" fill="#333">路由 · 协作记录 · 编排</text>
<rect x="908" y="188" width="124" height="100" rx="14" fill="#fff" stroke="#c48a15" stroke-width="2.5"/><text x="970" y="228" font-size="22" fill="#a26c00" font-weight="700">收件方</text><text x="970" y="259" font-size="18" fill="#555">查看 / 回复</text>
<path d="M104 430Q106 420 118 422L963 422Q975 423 975 435L975 497Q973 507 961 507L115 507Q103 505 104 495Z" fill="#fff" stroke="#c5412e" stroke-width="2.5"/><text x="540" y="458" font-size="22" fill="#c5412e" font-weight="700">接入 MCP 不等于消息自动唤醒 Agent</text><text x="540" y="488" font-size="19" fill="#444">还要验证收件箱拉取、通知、宿主唤醒与失败处理</text><text x="540" y="555" font-size="20" fill="#555">先验证本机通信闭环，再评估跨环境、权限、可靠性和企业化实现</text>
</g><g fill="none" stroke-linecap="round" stroke-linejoin="round">
<path d="M283 211 Q327 211 359 238" stroke="#245ba8" stroke-width="2.8" fill="none"/><use href="#arrow" x="359" y="238" transform="rotate(42 359 238)" color="#245ba8"/>
<path d="M283 327 Q327 327 359 298" stroke="#c5412e" stroke-width="2.8" fill="none"/><use href="#arrow" x="359" y="298" transform="rotate(-42 359 298)" color="#c5412e"/>
<path d="M522 269 L590 269" stroke="#258148" stroke-width="3"/><use href="#arrow" x="590" y="269" color="#258148"/>
<path d="M865 262 L895 242" stroke="#258148" stroke-width="3"/><use href="#arrow" x="895" y="242" transform="rotate(-35 895 242)" color="#258148"/>
</g></svg>
